<svg width="290" height="64" viewBox="0 0 290 64" fill="none" xmlns="http://www.w3.org/2000/svg">
<path d="M53.3333 48C56.2667 48 58.64 45.6 58.64 42.6667L58.6667 16C58.6667 13.0667 56.2667 10.6667 53.3333 10.6667H10.6667C7.73333 10.6667 5.33333 13.0667 5.33333 16V42.6667C5.33333 45.6 7.73333 48 10.6667 48H0V53.3333H64V48H53.3333ZM10.6667 16H53.3333V42.6667H10.6667V16Z" fill="#6002EE"/>
<path d="M92.208 22.616C91.272 22.112 90.276 21.704 89.22 21.392C88.164 21.08 87.168 20.924 86.232 20.924C84.816 20.924 83.688 21.248 82.848 21.896C82.032 22.52 81.624 23.384 81.624 24.488C81.624 25.568 82.104 26.456 83.064 27.152C84.048 27.824 85.44 28.496 87.24 29.168C88.584 29.648 89.712 30.176 90.624 30.752C91.56 31.304 92.328 32.084 92.928 33.092C93.552 34.076 93.864 35.336 93.864 36.872C93.864 38.264 93.516 39.524 92.82 40.652C92.124 41.78 91.128 42.668 89.832 43.316C88.56 43.964 87.06 44.288 85.332 44.288C83.724 44.288 82.176 44.036 80.688 43.532C79.2 43.004 77.892 42.344 76.764 41.552L78.312 38.78C79.2 39.452 80.268 40.028 81.516 40.508C82.764 40.964 83.928 41.192 85.008 41.192C86.4 41.192 87.612 40.832 88.644 40.112C89.7 39.392 90.228 38.324 90.228 36.908C90.228 35.708 89.784 34.76 88.896 34.064C88.032 33.344 86.808 32.672 85.224 32.048C83.76 31.496 82.536 30.956 81.552 30.428C80.592 29.9 79.764 29.18 79.068 28.268C78.372 27.332 78.024 26.168 78.024 24.776C78.024 22.736 78.732 21.092 80.148 19.844C81.588 18.572 83.448 17.9 85.728 17.828C88.536 17.828 91.14 18.524 93.54 19.916L92.208 22.616ZM108.121 28.52C109.513 28.52 110.665 28.94 111.577 29.78C112.489 30.596 112.957 31.664 112.981 32.984V44H109.597V34.136C109.549 33.296 109.297 32.636 108.841 32.156C108.385 31.676 107.701 31.424 106.789 31.4C105.925 31.4 105.145 31.64 104.449 32.12C103.753 32.6 103.201 33.272 102.793 34.136C102.409 35 102.217 35.96 102.217 37.016V44H98.8691V16.1H102.145V31.796C102.697 30.812 103.489 30.02 104.521 29.42C105.577 28.82 106.777 28.52 108.121 28.52ZM134.068 29.096V44H130.72V41.552C130.192 42.248 129.424 42.896 128.416 43.496C127.408 44.072 126.268 44.36 124.996 44.36C123.58 44.36 122.296 44.06 121.144 43.46C120.016 42.836 119.116 41.936 118.444 40.76C117.796 39.584 117.472 38.18 117.472 36.548C117.472 34.916 117.808 33.5 118.48 32.3C119.176 31.076 120.1 30.14 121.252 29.492C122.428 28.82 123.724 28.484 125.14 28.484C126.412 28.484 127.516 28.76 128.452 29.312C129.388 29.864 130.144 30.584 130.72 31.472L130.972 29.096H134.068ZM125.896 41.588C127.12 41.588 128.164 41.252 129.028 40.58C129.916 39.884 130.48 38.948 130.72 37.772V34.82C130.432 33.764 129.832 32.912 128.92 32.264C128.008 31.592 126.964 31.256 125.788 31.256C124.9 31.256 124.072 31.472 123.304 31.904C122.56 32.336 121.96 32.948 121.504 33.74C121.072 34.508 120.856 35.384 120.856 36.368C120.856 37.328 121.084 38.204 121.54 38.996C121.996 39.788 122.608 40.424 123.376 40.904C124.144 41.36 124.984 41.588 125.896 41.588ZM143.136 32.624C143.52 31.808 144.06 31.088 144.756 30.464C145.476 29.84 146.232 29.36 147.024 29.024C147.816 28.688 148.512 28.508 149.112 28.484L148.968 31.832C147.888 31.784 146.904 32 146.016 32.48C145.152 32.96 144.468 33.632 143.964 34.496C143.484 35.336 143.244 36.236 143.244 37.196V44H139.896V29.096H142.884L143.136 32.624ZM159.783 41.48C161.031 41.48 162.243 41.048 163.419 40.184L164.967 42.668C164.175 43.196 163.311 43.616 162.375 43.928C161.463 44.216 160.575 44.36 159.711 44.36C158.055 44.36 156.603 44.024 155.355 43.352C154.131 42.656 153.183 41.708 152.511 40.508C151.839 39.308 151.503 37.952 151.503 36.44C151.503 34.976 151.863 33.644 152.583 32.444C153.327 31.22 154.335 30.26 155.607 29.564C156.879 28.844 158.271 28.484 159.783 28.484C161.727 28.484 163.347 29.06 164.643 30.212C165.963 31.34 166.863 32.924 167.343 34.964L155.535 39.104C155.967 39.848 156.543 40.436 157.263 40.868C158.007 41.276 158.847 41.48 159.783 41.48ZM159.531 31.148C158.163 31.148 157.035 31.628 156.147 32.588C155.259 33.548 154.815 34.772 154.815 36.26C154.815 36.62 154.827 36.896 154.851 37.088L163.527 33.884C163.167 33.068 162.651 32.408 161.979 31.904C161.331 31.4 160.515 31.148 159.531 31.148ZM198.214 17.144V44H194.758V27.152L185.182 40.724H185.11L175.714 27.62V44H172.33V17.144H172.366L185.182 35.288L198.178 17.144H198.214ZM219.049 29.096L209.437 51.164H206.125L209.545 43.496L202.633 29.096H206.413L211.237 39.716L215.953 29.096H219.049ZM237.81 44L231.69 34.388C231.498 34.412 231.21 34.424 230.826 34.424H226.974V44H223.482V17.972H230.43C232.206 17.972 233.79 18.284 235.182 18.908C236.574 19.532 237.666 20.456 238.458 21.68C239.25 22.88 239.646 24.332 239.646 26.036C239.646 27.644 239.286 29.12 238.566 30.464C237.87 31.808 236.79 32.828 235.326 33.524L241.878 44H237.81ZM230.754 31.04C232.626 31.04 233.97 30.548 234.786 29.564C235.626 28.58 236.046 27.452 236.046 26.18C236.046 25.412 235.866 24.656 235.506 23.912C235.17 23.168 234.618 22.556 233.85 22.076C233.106 21.572 232.158 21.32 231.006 21.32H226.974V31.04H230.754ZM249.768 29.096V44H246.42V29.096H249.768ZM246.168 23.732C246.168 23.204 246.372 22.76 246.78 22.4C247.188 22.04 247.656 21.86 248.184 21.86C248.712 21.86 249.168 22.04 249.552 22.4C249.96 22.76 250.164 23.204 250.164 23.732C250.164 24.26 249.96 24.704 249.552 25.064C249.168 25.424 248.712 25.604 248.184 25.604C247.656 25.604 247.188 25.424 246.78 25.064C246.372 24.704 246.168 24.26 246.168 23.732ZM271.328 29.096V44.108C271.328 45.476 270.98 46.712 270.284 47.816C269.588 48.92 268.592 49.796 267.296 50.444C266.024 51.092 264.524 51.416 262.796 51.416C261.284 51.416 259.976 51.164 258.872 50.66C257.792 50.156 256.7 49.412 255.596 48.428L257.576 46.124C258.392 46.892 259.208 47.468 260.024 47.852C260.84 48.26 261.74 48.464 262.724 48.464C264.38 48.464 265.652 48.068 266.54 47.276C267.452 46.484 267.92 45.416 267.944 44.072L267.98 41.264C267.428 42.2 266.612 42.956 265.532 43.532C264.476 44.084 263.252 44.36 261.86 44.36C260.492 44.36 259.232 44.012 258.08 43.316C256.928 42.62 256.004 41.672 255.308 40.472C254.636 39.272 254.3 37.94 254.3 36.476C254.3 34.964 254.648 33.608 255.344 32.408C256.064 31.184 257.024 30.224 258.224 29.528C259.424 28.832 260.708 28.484 262.076 28.484C263.348 28.484 264.524 28.736 265.604 29.24C266.684 29.744 267.488 30.392 268.016 31.184L268.268 29.096H271.328ZM262.832 41.588C264.104 41.588 265.208 41.24 266.144 40.544C267.08 39.848 267.692 38.936 267.98 37.808V34.856C267.644 33.776 267.008 32.912 266.072 32.264C265.136 31.592 264.056 31.256 262.832 31.256C261.368 31.256 260.144 31.736 259.16 32.696C258.176 33.656 257.684 34.88 257.684 36.368C257.684 37.328 257.912 38.204 258.368 38.996C258.824 39.788 259.448 40.424 260.24 40.904C261.032 41.36 261.896 41.588 262.832 41.588Z" fill="#6002EE"/>
</svg>
