<svg width="290" height="64" viewBox="0 0 290 64" fill="none" xmlns="http://www.w3.org/2000/svg">
<path d="M53.3333 48C56.2667 48 58.64 45.6 58.64 42.6667L58.6667 16C58.6667 13.0667 56.2667 10.6667 53.3333 10.6667H10.6667C7.73333 10.6667 5.33333 13.0667 5.33333 16V42.6667C5.33333 45.6 7.73333 48 10.6667 48H0V53.3333H64V48H53.3333ZM10.6667 16H53.3333V42.6667H10.6667V16Z" fill="#6002EE"/>
<path d="M93.072 39.124C93.072 41.404 92.244 43.18 90.588 44.452C88.932 45.724 86.7 46.36 83.892 46.36C82.452 46.36 81.12 46.252 79.896 46.036C78.672 45.82 77.652 45.52 76.836 45.136V42.04C77.7 42.424 78.768 42.772 80.04 43.084C81.336 43.396 82.668 43.552 84.036 43.552C85.956 43.552 87.396 43.18 88.356 42.436C89.34 41.692 89.832 40.684 89.832 39.412C89.832 38.572 89.652 37.864 89.292 37.288C88.932 36.712 88.308 36.184 87.42 35.704C86.556 35.2 85.344 34.672 83.784 34.12C81.6 33.328 79.944 32.356 78.816 31.204C77.712 30.052 77.16 28.48 77.16 26.488C77.16 25.12 77.508 23.956 78.204 22.996C78.9 22.012 79.86 21.256 81.084 20.728C82.332 20.2 83.76 19.936 85.368 19.936C86.784 19.936 88.08 20.068 89.256 20.332C90.432 20.596 91.5 20.944 92.46 21.376L91.452 24.148C90.564 23.764 89.592 23.44 88.536 23.176C87.504 22.912 86.424 22.78 85.296 22.78C83.688 22.78 82.476 23.128 81.66 23.824C80.844 24.496 80.436 25.396 80.436 26.524C80.436 27.388 80.616 28.108 80.976 28.684C81.336 29.26 81.924 29.776 82.74 30.232C83.556 30.688 84.66 31.18 86.052 31.708C87.564 32.26 88.836 32.86 89.868 33.508C90.924 34.132 91.716 34.888 92.244 35.776C92.796 36.664 93.072 37.78 93.072 39.124ZM100.986 18.64V26.668C100.986 27.628 100.926 28.528 100.806 29.368H101.022C101.646 28.384 102.486 27.64 103.542 27.136C104.622 26.632 105.786 26.38 107.034 26.38C109.386 26.38 111.15 26.944 112.326 28.072C113.502 29.176 114.09 30.964 114.09 33.436V46H110.958V33.652C110.958 30.556 109.518 29.008 106.638 29.008C104.478 29.008 102.99 29.62 102.174 30.844C101.382 32.044 100.986 33.772 100.986 36.028V46H97.8178V18.64H100.986ZM127.38 26.38C129.732 26.38 131.472 26.896 132.6 27.928C133.728 28.96 134.292 30.604 134.292 32.86V46H131.988L131.376 43.264H131.232C130.392 44.32 129.504 45.1 128.568 45.604C127.656 46.108 126.384 46.36 124.752 46.36C123 46.36 121.548 45.904 120.396 44.992C119.244 44.056 118.668 42.604 118.668 40.636C118.668 38.716 119.424 37.24 120.936 36.208C122.448 35.152 124.776 34.576 127.92 34.48L131.196 34.372V33.22C131.196 31.612 130.848 30.496 130.152 29.872C129.456 29.248 128.472 28.936 127.2 28.936C126.192 28.936 125.232 29.092 124.32 29.404C123.408 29.692 122.556 30.028 121.764 30.412L120.792 28.036C121.632 27.58 122.628 27.196 123.78 26.884C124.932 26.548 126.132 26.38 127.38 26.38ZM131.16 36.568L128.316 36.676C125.916 36.772 124.248 37.156 123.312 37.828C122.4 38.5 121.944 39.448 121.944 40.672C121.944 41.752 122.268 42.544 122.916 43.048C123.588 43.552 124.44 43.804 125.472 43.804C127.104 43.804 128.46 43.36 129.54 42.472C130.62 41.56 131.16 40.168 131.16 38.296V36.568ZM149.251 26.344C149.611 26.344 149.995 26.368 150.403 26.416C150.835 26.44 151.207 26.488 151.519 26.56L151.123 29.476C150.811 29.404 150.463 29.344 150.079 29.296C149.719 29.248 149.371 29.224 149.035 29.224C148.051 29.224 147.127 29.5 146.263 30.052C145.399 30.58 144.703 31.336 144.175 32.32C143.671 33.28 143.419 34.408 143.419 35.704V46H140.251V26.704H142.843L143.203 30.232H143.347C143.971 29.176 144.775 28.264 145.759 27.496C146.743 26.728 147.907 26.344 149.251 26.344ZM161.871 26.344C163.527 26.344 164.943 26.704 166.119 27.424C167.319 28.144 168.231 29.164 168.855 30.484C169.503 31.78 169.827 33.304 169.827 35.056V36.964H156.615C156.663 39.148 157.215 40.816 158.271 41.968C159.351 43.096 160.851 43.66 162.771 43.66C163.995 43.66 165.075 43.552 166.011 43.336C166.971 43.096 167.955 42.76 168.963 42.328V45.1C167.979 45.532 167.007 45.844 166.047 46.036C165.087 46.252 163.947 46.36 162.627 46.36C160.803 46.36 159.183 45.988 157.767 45.244C156.375 44.5 155.283 43.396 154.491 41.932C153.723 40.444 153.339 38.632 153.339 36.496C153.339 34.384 153.687 32.572 154.383 31.06C155.103 29.548 156.099 28.384 157.371 27.568C158.667 26.752 160.167 26.344 161.871 26.344ZM161.835 28.936C160.323 28.936 159.123 29.428 158.235 30.412C157.371 31.372 156.855 32.716 156.687 34.444H166.515C166.491 32.812 166.107 31.492 165.363 30.484C164.619 29.452 163.443 28.936 161.835 28.936ZM186.512 46L178.052 23.464H177.908C177.98 24.208 178.04 25.216 178.088 26.488C178.136 27.736 178.16 29.044 178.16 30.412V46H175.172V20.296H179.96L187.88 41.356H188.024L196.088 20.296H200.84V46H197.636V30.196C197.636 28.948 197.66 27.712 197.708 26.488C197.78 25.264 197.84 24.268 197.888 23.5H197.744L189.176 46H186.512ZM204.376 26.704H207.76L211.936 37.684C212.296 38.644 212.62 39.568 212.908 40.456C213.196 41.32 213.412 42.148 213.556 42.94H213.7C213.844 42.34 214.072 41.56 214.384 40.6C214.696 39.616 215.02 38.632 215.356 37.648L219.28 26.704H222.7L214.384 48.664C213.712 50.488 212.836 51.94 211.756 53.02C210.7 54.1 209.236 54.64 207.364 54.64C206.788 54.64 206.284 54.604 205.852 54.532C205.42 54.484 205.048 54.424 204.736 54.352V51.832C205 51.88 205.312 51.928 205.672 51.976C206.056 52.024 206.452 52.048 206.86 52.048C207.964 52.048 208.852 51.736 209.524 51.112C210.22 50.488 210.76 49.66 211.144 48.628L212.152 46.072L204.376 26.704ZM233.275 20.296C236.467 20.296 238.819 20.908 240.331 22.132C241.867 23.332 242.635 25.156 242.635 27.604C242.635 28.972 242.383 30.112 241.879 31.024C241.375 31.936 240.727 32.668 239.935 33.22C239.167 33.748 238.351 34.168 237.487 34.48L244.543 46H240.763L234.535 35.38H229.423V46H226.183V20.296H233.275ZM233.095 23.104H229.423V32.644H233.275C235.363 32.644 236.887 32.236 237.847 31.42C238.807 30.58 239.287 29.356 239.287 27.748C239.287 26.068 238.783 24.88 237.775 24.184C236.767 23.464 235.207 23.104 233.095 23.104ZM249.766 19.468C250.246 19.468 250.666 19.636 251.026 19.972C251.41 20.284 251.602 20.788 251.602 21.484C251.602 22.156 251.41 22.66 251.026 22.996C250.666 23.332 250.246 23.5 249.766 23.5C249.238 23.5 248.794 23.332 248.434 22.996C248.074 22.66 247.894 22.156 247.894 21.484C247.894 20.788 248.074 20.284 248.434 19.972C248.794 19.636 249.238 19.468 249.766 19.468ZM251.314 26.704V46H248.146V26.704H251.314ZM264.267 26.344C265.539 26.344 266.679 26.584 267.687 27.064C268.719 27.544 269.595 28.276 270.315 29.26H270.495L270.927 26.704H273.447V46.324C273.447 49.084 272.739 51.16 271.323 52.552C269.931 53.944 267.759 54.64 264.807 54.64C261.975 54.64 259.659 54.232 257.859 53.416V50.5C259.755 51.508 262.131 52.012 264.987 52.012C266.643 52.012 267.939 51.52 268.875 50.536C269.835 49.576 270.315 48.256 270.315 46.576V45.82C270.315 45.532 270.327 45.124 270.351 44.596C270.375 44.044 270.399 43.66 270.423 43.444H270.279C268.983 45.388 266.991 46.36 264.303 46.36C261.807 46.36 259.851 45.484 258.435 43.732C257.043 41.98 256.347 39.532 256.347 36.388C256.347 33.316 257.043 30.88 258.435 29.08C259.851 27.256 261.795 26.344 264.267 26.344ZM264.699 29.008C263.091 29.008 261.843 29.656 260.955 30.952C260.067 32.224 259.623 34.048 259.623 36.424C259.623 38.8 260.055 40.624 260.919 41.896C261.807 43.144 263.091 43.768 264.771 43.768C266.715 43.768 268.131 43.252 269.019 42.22C269.907 41.164 270.351 39.472 270.351 37.144V36.388C270.351 33.748 269.895 31.864 268.983 30.736C268.071 29.584 266.643 29.008 264.699 29.008Z" fill="#6002EE"/>
</svg>
